<?xml version="1.0" encoding="UTF-8" standalone="no"?>
<svg
   height="45"
   viewBox="0 0 44.984623 45"
   version="1.1"
   id="svg1"
   sodipodi:docname="bug-dark.svg"
   inkscape:version="1.4 (86a8ad7, 2024-10-11)"
   width="44.984623"
   xmlns:inkscape="http://www.inkscape.org/namespaces/inkscape"
   xmlns:sodipodi="http://sodipodi.sourceforge.net/DTD/sodipodi-0.dtd"
   xmlns="http://www.w3.org/2000/svg"
   xmlns:svg="http://www.w3.org/2000/svg">
  <defs
     id="defs1" />
  <sodipodi:namedview
     id="namedview1"
     pagecolor="#ffffff"
     bordercolor="#000000"
     borderopacity="0.25"
     inkscape:showpageshadow="2"
     inkscape:pageopacity="0.0"
     inkscape:pagecheckerboard="0"
     inkscape:deskcolor="#d1d1d1"
     inkscape:zoom="12.078125"
     inkscape:cx="21.195343"
     inkscape:cy="20.65718"
     inkscape:window-width="1920"
     inkscape:window-height="991"
     inkscape:window-x="-9"
     inkscape:window-y="-9"
     inkscape:window-maximized="1"
     inkscape:current-layer="svg1" />
  <!--!
    Font Awesome Free 6.4.2 by @fontawesome - https://fontawesome.com License -
    https://fontawesome.com/license (Commercial License) Copyright 2023 Fonticons, Inc. -->
  <style
     id="style1">svg{fill:#ffffff}</style>
  <path
     d="m 22.492312,0 c 4.656612,0 8.434617,3.7780056 8.434617,8.4346171 v 0.3162981 c 0,1.3794118 -1.115829,2.4952408 -2.495241,2.4952408 H 16.552936 c -1.379411,0 -2.495241,-1.115829 -2.495241,-2.4952408 V 8.4346171 C 14.057695,3.7780056 17.835701,0 22.492312,0 Z M 3.6374286,9.2605067 c 1.0982574,-1.0982575 2.8818275,-1.0982575 3.9800849,0 l 5.6230785,5.6230783 c 0.0615,0.0615 0.114218,0.123005 0.166935,0.184507 1.24762,-0.641382 2.670962,-1.001611 4.173378,-1.001611 h 9.8316 c 1.502417,0 2.916972,0.360229 4.173379,1.001611 0.05272,-0.0615 0.105432,-0.123005 0.166935,-0.184507 l 5.623078,-5.6230783 c 1.098257,-1.0982575 2.881827,-1.0982575 3.980085,0 1.098257,1.0982573 1.098257,2.8818273 0,3.9800853 l -5.623078,5.623078 c -0.0615,0.0615 -0.123005,0.114218 -0.184507,0.166935 0.544735,1.054327 0.887392,2.222873 0.975252,3.470493 h 5.649436 c 1.555133,0 2.811539,1.256407 2.811539,2.811539 0,1.555133 -1.256406,2.811539 -2.811539,2.811539 h -5.623078 c 0,2.161371 -0.483233,4.199737 -1.353053,6.027237 0.193293,0.114219 0.369015,0.254796 0.527164,0.421731 l 5.623078,5.623078 c 1.098257,1.098257 1.098257,2.881827 0,3.980085 -1.098258,1.098257 -2.881828,1.098257 -3.980085,0 l -5.544004,-5.544004 c -2.152584,1.915361 -4.902621,3.180554 -7.933811,3.47928 v -21.02504 c 0,-0.773174 -0.632597,-1.40577 -1.40577,-1.40577 -0.773173,0 -1.405769,0.632596 -1.405769,1.40577 v 21.016254 c -3.031191,-0.298726 -5.781227,-1.563919 -7.933812,-3.47928 l -5.5352175,5.535218 c -1.0982574,1.098257 -2.8818275,1.098257 -3.9800849,0 -1.0982575,-1.098258 -1.0982575,-2.881828 0,-3.980085 l 5.623078,-5.623078 C 9.4186557,34.388637 9.5943769,34.256846 9.7788842,34.133841 8.9178503,32.315127 8.4346171,30.276761 8.4346171,28.11539 H 2.811539 C 1.2564065,28.11539 0,26.858984 0,25.303851 0,23.748719 1.2564065,22.492312 2.811539,22.492312 H 8.4609753 C 8.5576219,21.253478 8.9002782,20.076146 9.4362279,19.021819 9.3747254,18.969102 9.313223,18.916386 9.2517206,18.854884 l -5.623078,-5.623078 c -1.0982575,-1.098258 -1.0982575,-2.881828 0,-3.9800854 z"
     id="path1"
     style="fill:#666666;stroke-width:0.0878606" />
</svg>
