<?xml version="1.0" encoding="UTF-8" standalone="no"?>
<svg
   xmlns:dc="http://purl.org/dc/elements/1.1/"
   xmlns:cc="http://creativecommons.org/ns#"
   xmlns:rdf="http://www.w3.org/1999/02/22-rdf-syntax-ns#"
   xmlns:svg="http://www.w3.org/2000/svg"
   xmlns="http://www.w3.org/2000/svg"
   xmlns:sodipodi="http://sodipodi.sourceforge.net/DTD/sodipodi-0.dtd"
   xmlns:inkscape="http://www.inkscape.org/namespaces/inkscape"
   version="1.1"
   id="Capa_1"
   x="0px"
   y="0px"
   viewBox="0 0 599.99999 599.99999"
   xml:space="preserve"
   sodipodi:docname="export.svg"
   inkscape:version="1.0.2 (e86c870879, 2021-01-15)"
   inkscape:export-filename="weblc6/img/export.png"
   inkscape:export-xdpi="20.48"
   inkscape:export-ydpi="20.48"
   width="600"
   height="600"><metadata
   id="metadata1804"><rdf:RDF><cc:Work
       rdf:about=""><dc:format>image/svg+xml</dc:format><dc:type
         rdf:resource="http://purl.org/dc/dcmitype/StillImage" /><dc:title></dc:title></cc:Work></rdf:RDF></metadata><defs
   id="defs71">
	
	
	
	
	
	
	
	
	
	
	
	
	
	
	
	
	
</defs><sodipodi:namedview
   id="namedview69"
   pagecolor="#ffffff"
   bordercolor="#666666"
   borderopacity="1.0"
   inkscape:showpageshadow="2"
   inkscape:pageopacity="0.0"
   inkscape:pagecheckerboard="0"
   inkscape:deskcolor="#d1d1d1"
   showgrid="false"
   inkscape:zoom="0.6258818"
   inkscape:cx="85.00879"
   inkscape:cy="114.70472"
   inkscape:window-width="1620"
   inkscape:window-height="1021"
   inkscape:window-x="156"
   inkscape:window-y="0"
   inkscape:window-maximized="0"
   inkscape:current-layer="Capa_1"
   inkscape:document-rotation="0" />
<path
   d="M 499.02446,378.1841 V 506.96494 H 105.10322 V 378.1841 H 29.39181 v 166.63655 c 0,20.89306 16.925054,37.8369 37.912122,37.8369 H 536.82374 c 20.96826,0 37.91211,-16.92504 37.91211,-37.8369 V 378.1841 Z"
   id="path2"
   style="fill:#ffffff;fill-opacity:1;stroke:#ffffff;stroke-width:18.8056" /><path
   d="M 295.13396,365.41509 186.7384,234.43397 c 0,0 -16.49253,-15.57105 1.39161,-15.57105 17.88414,0 61.08064,0 61.08064,0 0,0 0,-10.47473 0,-26.62875 0,-46.05495 0,-129.871583 0,-164.041386 0,0 -2.42592,-9.289974 11.56545,-9.289974 14.10422,0 75.88065,0 85.97927,0 10.07983,0 9.85415,7.823136 9.85415,7.823136 0,33.135496 0,119.848194 0,164.398694 0,14.44271 0,23.80791 0,23.80791 0,0 34.63994,0 56.37925,0 21.70167,0 5.3596,16.30447 5.3596,16.30447 0,0 -92.22276,122.42456 -105.0858,135.26879 -9.25235,9.30878 -18.12861,-1.09072 -18.12861,-1.09072 z"
   id="path4"
   style="fill:#ffffff;fill-opacity:1;stroke:#ffffff;stroke-width:18.8056" /><g
   id="g6"
   style="fill:#ffffff;fill-opacity:1;stroke:#ffffff"
   transform="matrix(2.8712979,0,0,2.8712979,20.020587,10.935651)">
	</g><g
   id="g8"
   style="fill:#ffffff;fill-opacity:1;stroke:#ffffff"
   transform="matrix(2.8712979,0,0,2.8712979,20.020587,10.935651)">
	</g><g
   id="g10"
   style="fill:#ffffff;fill-opacity:1;stroke:#ffffff"
   transform="matrix(2.8712979,0,0,2.8712979,20.020587,10.935651)">
	</g><g
   id="g12"
   style="fill:#ffffff;fill-opacity:1;stroke:#ffffff"
   transform="matrix(2.8712979,0,0,2.8712979,20.020587,10.935651)">
	</g><g
   id="g14"
   style="fill:#ffffff;fill-opacity:1;stroke:#ffffff"
   transform="matrix(2.8712979,0,0,2.8712979,20.020587,10.935651)">
	</g><g
   id="g16"
   style="fill:#ffffff;fill-opacity:1;stroke:#ffffff"
   transform="matrix(2.8712979,0,0,2.8712979,20.020587,10.935651)">
	</g><g
   id="g18"
   style="fill:#ffffff;fill-opacity:1;stroke:#ffffff"
   transform="matrix(2.8712979,0,0,2.8712979,20.020587,10.935651)">
	</g><g
   id="g20"
   style="fill:#ffffff;fill-opacity:1;stroke:#ffffff"
   transform="matrix(2.8712979,0,0,2.8712979,20.020587,10.935651)">
	</g><g
   id="g22"
   style="fill:#ffffff;fill-opacity:1;stroke:#ffffff"
   transform="matrix(2.8712979,0,0,2.8712979,20.020587,10.935651)">
	</g><g
   id="g24"
   style="fill:#ffffff;fill-opacity:1;stroke:#ffffff"
   transform="matrix(2.8712979,0,0,2.8712979,20.020587,10.935651)">
	</g><g
   id="g26"
   style="fill:#ffffff;fill-opacity:1;stroke:#ffffff"
   transform="matrix(2.8712979,0,0,2.8712979,20.020587,10.935651)">
	</g><g
   id="g28"
   style="fill:#ffffff;fill-opacity:1;stroke:#ffffff"
   transform="matrix(2.8712979,0,0,2.8712979,20.020587,10.935651)">
	</g><g
   id="g30"
   style="fill:#ffffff;fill-opacity:1;stroke:#ffffff"
   transform="matrix(2.8712979,0,0,2.8712979,20.020587,10.935651)">
	</g><g
   id="g32"
   style="fill:#ffffff;fill-opacity:1;stroke:#ffffff"
   transform="matrix(2.8712979,0,0,2.8712979,20.020587,10.935651)">
	</g><g
   id="g34"
   style="fill:#ffffff;fill-opacity:1;stroke:#ffffff"
   transform="matrix(2.8712979,0,0,2.8712979,20.020587,10.935651)">
	</g>
<g
   id="g38"
   style="fill:#ffffff;fill-opacity:1;stroke:#ffffff"
   transform="matrix(2.8712979,0,0,2.8712979,20.020587,10.935651)">
</g>
<g
   id="g40"
   style="fill:#ffffff;fill-opacity:1;stroke:#ffffff"
   transform="matrix(2.8712979,0,0,2.8712979,20.020587,10.935651)">
</g>
<g
   id="g42"
   style="fill:#ffffff;fill-opacity:1;stroke:#ffffff"
   transform="matrix(2.8712979,0,0,2.8712979,20.020587,10.935651)">
</g>
<g
   id="g44"
   style="fill:#ffffff;fill-opacity:1;stroke:#ffffff"
   transform="matrix(2.8712979,0,0,2.8712979,20.020587,10.935651)">
</g>
<g
   id="g46"
   style="fill:#ffffff;fill-opacity:1;stroke:#ffffff"
   transform="matrix(2.8712979,0,0,2.8712979,20.020587,10.935651)">
</g>
<g
   id="g48"
   style="fill:#ffffff;fill-opacity:1;stroke:#ffffff"
   transform="matrix(2.8712979,0,0,2.8712979,20.020587,10.935651)">
</g>
<g
   id="g50"
   style="fill:#ffffff;fill-opacity:1;stroke:#ffffff"
   transform="matrix(2.8712979,0,0,2.8712979,20.020587,10.935651)">
</g>
<g
   id="g52"
   style="fill:#ffffff;fill-opacity:1;stroke:#ffffff"
   transform="matrix(2.8712979,0,0,2.8712979,20.020587,10.935651)">
</g>
<g
   id="g54"
   style="fill:#ffffff;fill-opacity:1;stroke:#ffffff"
   transform="matrix(2.8712979,0,0,2.8712979,20.020587,10.935651)">
</g>
<g
   id="g56"
   style="fill:#ffffff;fill-opacity:1;stroke:#ffffff"
   transform="matrix(2.8712979,0,0,2.8712979,20.020587,10.935651)">
</g>
<g
   id="g58"
   style="fill:#ffffff;fill-opacity:1;stroke:#ffffff"
   transform="matrix(2.8712979,0,0,2.8712979,20.020587,10.935651)">
</g>
<g
   id="g60"
   style="fill:#ffffff;fill-opacity:1;stroke:#ffffff"
   transform="matrix(2.8712979,0,0,2.8712979,20.020587,10.935651)">
</g>
<g
   id="g62"
   style="fill:#ffffff;fill-opacity:1;stroke:#ffffff"
   transform="matrix(2.8712979,0,0,2.8712979,20.020587,10.935651)">
</g>
<g
   id="g64"
   style="fill:#ffffff;fill-opacity:1;stroke:#ffffff"
   transform="matrix(2.8712979,0,0,2.8712979,20.020587,10.935651)">
</g>
<g
   id="g66"
   style="fill:#ffffff;fill-opacity:1;stroke:#ffffff"
   transform="matrix(2.8712979,0,0,2.8712979,20.020587,10.935651)">
</g>
</svg>
