<?xml version="1.0" encoding="UTF-8" standalone="no"?>
<svg
   id="svg1"
   sodipodi:docname="pause.svg"
   viewBox="0 0 60 60"
   sodipodi:version="0.32"
   _SVGFile__filename="oldscale/actions/player_pause.svg"
   version="1.0"
   y="0"
   x="0"
   inkscape:version="1.2.2 (b0a8486541, 2022-12-01)"
   xmlns:inkscape="http://www.inkscape.org/namespaces/inkscape"
   xmlns:sodipodi="http://sodipodi.sourceforge.net/DTD/sodipodi-0.dtd"
   xmlns="http://www.w3.org/2000/svg"
   xmlns:svg="http://www.w3.org/2000/svg"
   xmlns:rdf="http://www.w3.org/1999/02/22-rdf-syntax-ns#"
   xmlns:cc="http://creativecommons.org/ns#"
   xmlns:dc="http://purl.org/dc/elements/1.1/">
  <defs
     id="defs10" />
  <sodipodi:namedview
     id="base"
     bordercolor="#666666"
     inkscape:pageshadow="2"
     inkscape:window-y="0"
     pagecolor="#ffffff"
     inkscape:window-height="1022"
     inkscape:zoom="3.8645419"
     inkscape:window-x="0"
     borderopacity="1.0"
     inkscape:current-layer="svg1"
     inkscape:cx="-4.2695876"
     inkscape:cy="0.38814432"
     inkscape:window-width="1920"
     inkscape:pageopacity="0.0"
     inkscape:showpageshadow="2"
     inkscape:pagecheckerboard="0"
     inkscape:deskcolor="#d1d1d1"
     showgrid="false"
     inkscape:window-maximized="1" />
  <path
     id="path1711"
     style="stroke-linejoin:round;color:#000000;stroke:#ffffff;stroke-linecap:round;stroke-width:3.50877193;fill:none;stroke-dasharray:none"
     transform="matrix(-3.5598e-7 -1.14 1.14 -3.5598e-7 6.2813 21.218)"
     d="m14.5 20.805c0 12.256-9.9471 22.203-22.203 22.203s-22.203-9.947-22.203-22.203 9.947-22.202 22.203-22.202c12.256-0.0004 22.203 9.9465 22.203 22.202z" />
  <path
     id="rect1091"
     style="color:#000000;fill:#ffffff;fill-rule:evenodd;stroke:#ffffff;stroke-width:4.61201;stroke-linecap:round;stroke-linejoin:round"
     d="M 34.666986,41.354492 V 18.525666 c 0,-0.934851 0.575381,-1.687764 1.288774,-1.687764 h 6.071445 c 0.714407,0 1.289789,0.752913 1.289789,1.687764 v 22.828826 c 0,0.935691 -0.575382,1.688602 -1.289789,1.688602 H 35.95576 c -0.713393,0 -1.288774,-0.752911 -1.288774,-1.688602 z" />
  <path
     id="rect4296"
     style="color:#000000;fill:#ffffff;fill-rule:evenodd;stroke:#ffffff;stroke-width:4.61201;stroke-linecap:round;stroke-linejoin:round"
     d="M 16.683006,41.354492 V 18.525666 c 0,-0.934851 0.575382,-1.687764 1.289789,-1.687764 h 6.071445 c 0.714407,0 1.288774,0.752913 1.288774,1.687764 v 22.828826 c 0,0.935691 -0.574367,1.688602 -1.288774,1.688602 h -6.071445 c -0.714407,0 -1.289789,-0.752911 -1.289789,-1.688602 z" />
  <metadata
     id="metadata7">
    <rdf:RDF>
      <cc:Work>
        <dc:format>image/svg+xml</dc:format>
        <dc:type
           rdf:resource="http://purl.org/dc/dcmitype/StillImage" />
        <cc:license
           rdf:resource="http://creativecommons.org/licenses/publicdomain/" />
        <dc:publisher>
          <cc:Agent
             rdf:about="http://openclipart.org/">
            <dc:title>Openclipart</dc:title>
          </cc:Agent>
        </dc:publisher>
      </cc:Work>
      <cc:License
         rdf:about="http://creativecommons.org/licenses/publicdomain/">
        <cc:permits
           rdf:resource="http://creativecommons.org/ns#Reproduction" />
        <cc:permits
           rdf:resource="http://creativecommons.org/ns#Distribution" />
        <cc:permits
           rdf:resource="http://creativecommons.org/ns#DerivativeWorks" />
      </cc:License>
    </rdf:RDF>
  </metadata>
</svg>
