<?xml version="1.0" encoding="UTF-8" standalone="no"?>
<!-- Generator: Adobe Illustrator 16.0.0, SVG Export Plug-In . SVG Version: 6.00 Build 0)  -->

<svg
   version="1.1"
   id="Capa_1"
   x="0px"
   y="0px"
   width="60"
   height="60"
   viewBox="0 0 59.999997 59.999997"
   xml:space="preserve"
   sodipodi:docname="pdf.svg"
   inkscape:version="1.4 (86a8ad7, 2024-10-11)"
   xmlns:inkscape="http://www.inkscape.org/namespaces/inkscape"
   xmlns:sodipodi="http://sodipodi.sourceforge.net/DTD/sodipodi-0.dtd"
   xmlns="http://www.w3.org/2000/svg"
   xmlns:svg="http://www.w3.org/2000/svg"><defs
   id="defs18">
	
	
	
</defs><sodipodi:namedview
   id="namedview18"
   pagecolor="#ffffff"
   bordercolor="#000000"
   borderopacity="0.25"
   inkscape:showpageshadow="2"
   inkscape:pageopacity="0.0"
   inkscape:pagecheckerboard="0"
   inkscape:deskcolor="#d1d1d1"
   inkscape:zoom="7.9388892"
   inkscape:cx="45.598319"
   inkscape:cy="42.386282"
   inkscape:window-width="1920"
   inkscape:window-height="991"
   inkscape:window-x="-9"
   inkscape:window-y="-9"
   inkscape:window-maximized="1"
   inkscape:current-layer="Capa_1" />
<path
   d="m 18.229107,30.807004 c 0,-1.505238 -1.045203,-2.403591 -2.889708,-2.403591 -0.752417,0 -1.262181,0.07257 -1.529494,0.145328 v 4.833467 c 0.316027,0.07175 0.704515,0.09631 1.237315,0.09631 1.967912,0 3.181887,-0.995474 3.181887,-2.671514 z"
   id="path1"
   style="fill:#ffffff;stroke-width:0.101486" /><path
   d="m 29.645657,28.451924 c -0.826603,0 -1.359606,0.07276 -1.676446,0.145632 v 10.709092 c 0.31623,0.07398 0.826298,0.07398 1.287856,0.07398 3.350759,0.02345 5.53646,-1.821266 5.53646,-5.731313 0.02456,-3.401095 -1.967304,-5.197395 -5.14787,-5.197395 z"
   id="path2"
   style="fill:#ffffff;stroke-width:0.101486" /><path
   d="m 51.521034,22.159801 h -1.342252 v -6.476422 c 0,-0.04039 -0.0064,-0.08109 -0.01177,-0.121985 -0.0021,-0.257166 -0.08393,-0.509764 -0.260006,-0.709894 L 39.12951,2.5400472 c -0.0033,-0.00314 -0.0064,-0.00426 -0.0086,-0.00772 -0.06424,-0.07175 -0.139137,-0.1314242 -0.218296,-0.1830805 -0.02345,-0.01573 -0.04709,-0.028924 -0.07165,-0.042523 -0.06861,-0.037449 -0.14137,-0.068503 -0.216267,-0.090931 -0.02029,-0.00569 -0.03857,-0.014005 -0.05886,-0.019283 -0.08139,-0.019282 -0.16593,-0.031359 -0.251584,-0.031359 H 11.817129 c -1.209509,0 -2.1920936,0.9837024 -2.1920936,2.1921961 V 22.159293 H 8.2830872 c -1.7302318,0 -3.1331725,1.402331 -3.1331725,3.133173 v 16.293047 c 0,1.729623 1.4029407,3.132868 3.1331725,3.132868 h 1.3420482 v 11.153093 c 0,1.208392 0.9825866,2.192196 2.1920946,2.192196 h 36.16956 c 1.208392,0 2.192094,-0.983703 2.192094,-2.192196 V 44.718381 h 1.342252 c 1.729725,0 3.13297,-1.403245 3.13297,-3.132868 v -16.29254 c -1.01e-4,-1.730739 -1.403347,-3.133172 -3.133072,-3.133172 z M 11.817129,4.3577605 H 37.20818 V 15.573267 c 0,0.605566 0.491292,1.096047 1.096047,1.096047 h 9.682461 v 5.491197 H 11.817129 Z M 38.727017,33.526622 c 0,3.133477 -1.141005,5.29401 -2.72185,6.630376 -1.722317,1.432676 -4.345625,2.112326 -7.550142,2.112326 -1.918084,0 -3.277689,-0.121478 -4.201616,-0.242449 V 25.949892 c 1.359808,-0.218094 3.13368,-0.339573 5.003658,-0.339573 3.106685,0 5.122803,0.558985 6.702025,1.748196 1.699178,1.262991 2.767925,3.278196 2.767925,6.168107 z m -28.584405,8.57312 v -16.14985 c 1.140802,-0.19323 2.74438,-0.339573 5.002847,-0.339573 2.282519,0 3.909945,0.437202 5.002339,1.31201 1.044493,0.825181 1.74708,2.185396 1.74708,3.788264 0,1.603375 -0.532802,2.963184 -1.504935,3.885386 -1.262687,1.190226 -3.13236,1.724854 -5.318569,1.724854 -0.484899,0 -0.923521,-0.02466 -1.261977,-0.07337 v 5.852689 H 10.142612 Z M 47.98679,55.278086 H 11.817129 V 44.718381 h 36.169559 v 10.559705 z m 3.176203,-26.510744 h -6.291007 v 3.739855 h 5.87735 v 3.011492 h -5.87735 v 6.581154 H 41.158313 V 25.731798 h 10.00468 z"
   id="path3"
   style="fill:#ffffff;fill-opacity:1;stroke:#ffffff;stroke-width:0.101486;stroke-opacity:1" />
<g
   id="g4"
   transform="matrix(0.11456769,0,0,0.11456769,29.451943,-0.4427162)">
</g>
<g
   id="g5"
   transform="matrix(0.11456769,0,0,0.11456769,29.451943,-0.4427162)">
</g>
<g
   id="g6"
   transform="matrix(0.11456769,0,0,0.11456769,29.451943,-0.4427162)">
</g>
<g
   id="g7"
   transform="matrix(0.11456769,0,0,0.11456769,29.451943,-0.4427162)">
</g>
<g
   id="g8"
   transform="matrix(0.11456769,0,0,0.11456769,29.451943,-0.4427162)">
</g>
<g
   id="g9"
   transform="matrix(0.11456769,0,0,0.11456769,29.451943,-0.4427162)">
</g>
<g
   id="g10"
   transform="matrix(0.11456769,0,0,0.11456769,29.451943,-0.4427162)">
</g>
<g
   id="g11"
   transform="matrix(0.11456769,0,0,0.11456769,29.451943,-0.4427162)">
</g>
<g
   id="g12"
   transform="matrix(0.11456769,0,0,0.11456769,29.451943,-0.4427162)">
</g>
<g
   id="g13"
   transform="matrix(0.11456769,0,0,0.11456769,29.451943,-0.4427162)">
</g>
<g
   id="g14"
   transform="matrix(0.11456769,0,0,0.11456769,29.451943,-0.4427162)">
</g>
<g
   id="g15"
   transform="matrix(0.11456769,0,0,0.11456769,29.451943,-0.4427162)">
</g>
<g
   id="g16"
   transform="matrix(0.11456769,0,0,0.11456769,29.451943,-0.4427162)">
</g>
<g
   id="g17"
   transform="matrix(0.11456769,0,0,0.11456769,29.451943,-0.4427162)">
</g>
<g
   id="g18"
   transform="matrix(0.11456769,0,0,0.11456769,29.451943,-0.4427162)">
</g>
</svg>
