<?xml version="1.0" encoding="UTF-8" standalone="no"?>
<svg
   fill="#000000"
   height="800px"
   width="800px"
   version="1.1"
   viewBox="0 0 512 512"
   enable-background="new 0 0 512 512"
   id="svg6"
   sodipodi:docname="preview_lc6.svg"
   inkscape:version="1.4 (86a8ad7, 2024-10-11)"
   inkscape:export-filename="weblc6/img/preview.png"
   inkscape:export-xdpi="15.36"
   inkscape:export-ydpi="15.36"
   xmlns:inkscape="http://www.inkscape.org/namespaces/inkscape"
   xmlns:sodipodi="http://sodipodi.sourceforge.net/DTD/sodipodi-0.dtd"
   xmlns="http://www.w3.org/2000/svg"
   xmlns:svg="http://www.w3.org/2000/svg"
   xmlns:rdf="http://www.w3.org/1999/02/22-rdf-syntax-ns#"
   xmlns:cc="http://creativecommons.org/ns#"
   xmlns:dc="http://purl.org/dc/elements/1.1/">
  <metadata
     id="metadata1955">
    <rdf:RDF>
      <cc:Work
         rdf:about="">
        <dc:format>image/svg+xml</dc:format>
        <dc:type
           rdf:resource="http://purl.org/dc/dcmitype/StillImage" />
      </cc:Work>
    </rdf:RDF>
  </metadata>
  <defs
     id="defs10" />
  <sodipodi:namedview
     id="namedview8"
     pagecolor="#ffffff"
     bordercolor="#666666"
     borderopacity="1.0"
     inkscape:showpageshadow="2"
     inkscape:pageopacity="0.0"
     inkscape:pagecheckerboard="0"
     inkscape:deskcolor="#d1d1d1"
     showgrid="false"
     inkscape:zoom="1.05875"
     inkscape:cx="512.86895"
     inkscape:cy="418.8902"
     inkscape:window-width="1920"
     inkscape:window-height="991"
     inkscape:window-x="-9"
     inkscape:window-y="-9"
     inkscape:window-maximized="1"
     inkscape:current-layer="svg6"
     inkscape:document-rotation="0" />
  <path
     d="M 494.8,241.4 444.2,192 C 394.1,143.1 327.3,116.2 256,116.2 184.7,116.2 117.9,143.1 67.8,192 l -50.6,49.4 c -11.3,12.3 -4.3,25.4 0,29.2 L 67.8,320 c 50.1,48.9 116.9,75.8 188.2,75.8 71.3,0 138.1,-26.9 188.2,-75.8 l 50.6,-49.4 c 4,-3.8 11.7,-16.4 0,-29.2 z M 256,325.8 c -38.5,0 -69.8,-31.3 -69.8,-69.8 0,-38.5 31.3,-69.8 69.8,-69.8 38.5,0 69.8,31.3 69.8,69.8 0,38.5 -31.3,69.8 -69.8,69.8 z M 60.7,256 96.4,221.2 c 27,-26.4 59.8,-45.2 95.7,-55.4 -28.2,20.1 -46.6,53 -46.6,90.1 0,37.1 18.4,70.1 46.6,90.1 -35.9,-10.2 -68.7,-29 -95.7,-55.3 z m 355,34.8 c -27,26.3 -59.8,45.1 -95.7,55.3 28.2,-20.1 46.6,-53 46.6,-90.1 0,-37.2 -18.4,-70.1 -46.6,-90.1 35.9,10.2 68.7,29 95.7,55.4 l 35.6,34.8 z"
     id="path2"
     style="stroke:#eeeeec;stroke-opacity:1;fill:#ffffff;fill-opacity:1" />
  <g
     id="g360"
     transform="matrix(1.0916177,0,0,1.0916177,464.347,57.89926)">
    <path
       style="fill:#2e3436;stroke-width:0.774194"
       d="m -200.28832,222.33925 v -4.42039 l 4.18879,-3.29492 31.56376,0.47286 2.95712,3.6554 v 2.99562 l -3.80058,3.80059 h -30.82931 z m 1.54838,-28.46239 0.40181,-62.18765 2.42907,-3.02297 4.9092,0.10698 3.09863,3.77016 v 61.05428 l -3.20915,4.07978 h -3.82897 z"
       id="path132"
       sodipodi:nodetypes="cccccccccccccccccc" />
    <path
       style="fill:#2e3436;stroke-width:0.771744"
       d="m -210.26272,211.22695 -2.4127,-3.75594 v -75.16738 l 3.80059,-3.77656 h 2.99561 l 3.65541,2.94029 0.433,69.37402 h 49.93216 l 3.44129,2.39515 v 5.05939 l -3.05724,3.1062 z"
       id="path128"
       sodipodi:nodetypes="cccccccccccc" />
    <path
       style="fill:#fecb00;stroke-width:0.774194"
       d="m -210.66263,279.09238 c -3.83226,-0.76878 -9.75484,-2.33202 -13.16129,-3.47386 -3.40646,-1.14185 -9.52833,-3.81783 -13.60416,-5.94663 -4.07583,-2.1288 -9.99841,-5.85947 -13.16129,-8.29037 -4.14369,-3.18474 -5.81619,-4.97777 -5.9851,-6.4164 -0.19796,-1.68613 1.71731,-3.87939 12.31808,-14.10598 6.90388,-6.66018 12.7966,-12.10942 13.09494,-12.10942 0.29834,0 3.11649,1.74533 6.26256,3.87851 3.14607,2.13318 8.15884,4.89077 11.13948,6.12797 2.98065,1.23721 7.99858,2.78033 11.15097,3.42918 3.15239,0.64883 6.05068,1.6364 6.44066,2.1946 0.40456,0.57908 0.54842,8.09421 0.33501,17.50046 -0.25522,11.24876 -0.67124,16.84368 -1.30965,17.61291 -0.52831,0.63657 -2.15822,1.09893 -3.74404,1.06208 -1.54464,-0.0359 -5.94392,-0.69426 -9.77617,-1.46305 z"
       id="path4498" />
    <path
       style="fill:#fe7d29;stroke-width:0.774194"
       d="m -186.96459,279.23138 c -0.55118,-1.02988 -0.85934,-7.41998 -0.85934,-17.81983 0,-12.03936 0.24918,-16.41493 0.96775,-16.99389 0.53225,-0.42884 3.91663,-1.51877 7.52081,-2.42207 3.6042,-0.9033 8.80021,-2.69392 11.5467,-3.97916 2.74649,-1.28524 7.0227,-3.72183 9.50268,-5.41465 2.47999,-1.69282 5.12677,-3.07786 5.88173,-3.07786 0.75498,0 6.89053,5.52594 13.63457,12.27987 8.58492,8.59753 12.17918,12.70932 11.98609,13.71197 -0.15169,0.78764 -2.23998,3.01331 -4.64065,4.94592 -2.40066,1.93262 -7.10625,5.14328 -10.45686,7.13481 -3.35061,1.99152 -9.08831,4.82889 -12.75045,6.30526 -3.66214,1.47638 -9.58019,3.42952 -13.15121,4.34033 -3.57103,0.91081 -9.15445,1.86728 -12.40763,2.12549 -5.44737,0.43238 -5.98278,0.34258 -6.77419,-1.13619 z"
       id="path4496" />
    <path
       style="fill:#872b9f;stroke-width:0.774194"
       d="m -242.0575,122.23425 c -9.70892,-9.64064 -12.34707,-12.69528 -12.34707,-14.29633 0,-1.65235 1.13081,-2.84927 6,-6.35079 3.3,-2.373087 8.6129,-5.718519 11.80645,-7.434291 3.19355,-1.715773 8.69378,-4.181074 12.22274,-5.478446 3.52896,-1.297373 9.85465,-3.059554 14.0571,-3.915958 4.20245,-0.856404 9.40286,-1.557098 11.55647,-1.557098 3.07895,0 4.08691,0.31999 4.7171,1.49749 0.47722,0.891705 0.80143,7.878565 0.80143,17.271383 0,11.42097 -0.26706,16.12678 -0.96774,17.05267 -0.56732,0.74965 -3.53049,1.80005 -7.16129,2.53857 -3.40645,0.69289 -8.53514,2.25456 -11.39708,3.47038 -2.86194,1.21582 -7.29694,3.6322 -9.85556,5.36972 -2.55862,1.73753 -5.19956,3.36925 -5.86876,3.62604 -0.85237,0.32708 -4.91418,-3.20455 -13.56379,-11.79334 z"
       id="path4494" />
    <path
       style="fill:#fe0000;stroke-width:0.774194"
       d="m -131.503,235.91101 c -6.34546,-6.28064 -11.87743,-12.04111 -12.29325,-12.80104 -0.593,-1.08369 0.0142,-2.54033 2.81546,-6.754 1.96433,-2.95478 4.45133,-7.53756 5.52665,-10.18396 1.07533,-2.6464 2.59082,-7.72049 3.36773,-11.27575 0.77693,-3.55526 1.83518,-6.97329 2.35169,-7.59564 0.77035,-0.92822 3.92215,-1.13154 17.54036,-1.13154 9.96314,0 17.200042,0.32045 18.098742,0.80143 1.15989,0.62075 1.49372,1.62436 1.48074,4.45161 -0.009,2.0076 -0.67398,6.61147 -1.47725,10.23083 -0.80327,3.61935 -2.23346,8.84516 -3.1782,11.6129 -0.94475,2.76774 -3.457232,8.44744 -5.583302,12.62155 -2.12608,4.17411 -5.43485,9.7483 -7.35284,12.38709 -1.91798,2.6388 -4.38011,5.75588 -5.47139,6.92684 -1.09128,1.17097 -2.5025,2.12904 -3.13604,2.12904 -0.63355,0 -6.34364,-5.13871 -12.6891,-11.41936 z"
       id="path4492" />
    <path
       style="fill:#2b2b9f;stroke-width:0.774194"
       d="m -287.88844,176.81674 c -0.97216,-0.56624 -1.35484,-1.77148 -1.35484,-4.26716 0,-1.91292 0.54748,-6.16335 1.21661,-9.4454 0.66913,-3.28205 2.25925,-9.10284 3.5336,-12.9351 1.27435,-3.83226 3.89952,-9.96952 5.83371,-13.63836 1.93419,-3.66884 5.74087,-9.67852 8.45928,-13.35484 3.29911,-4.46165 5.4497,-6.68422 6.46776,-6.68422 0.91983,0 6.3002,4.64652 13.55551,11.7066 7.39115,7.19227 12.03031,12.28748 12.03031,13.21295 0,0.82849 -0.84307,2.61535 -1.87347,3.97081 -1.03041,1.35546 -3.13239,4.94695 -4.67106,7.98109 -1.53867,3.03413 -3.51386,8.60832 -4.38932,12.38709 -0.87545,3.77877 -1.74449,7.66669 -1.93121,8.63981 -0.19052,0.99296 -1.20137,2.09701 -2.30374,2.51613 -1.08034,0.41075 -8.99642,0.73622 -17.59128,0.72326 -9.16724,-0.0138 -16.18707,-0.34974 -16.98186,-0.81266 z"
       id="path4490" />
    <path
       style="fill:#215400;stroke-width:0.774194"
       d="m -266.85877,244.81424 c -1.26632,-1.38387 -3.87922,-4.86407 -5.80644,-7.73378 -1.92723,-2.8697 -5.24698,-8.86631 -7.37723,-13.3258 -2.33289,-4.8837 -4.74024,-11.58339 -6.05345,-16.84687 -1.19915,-4.8063 -2.3968,-10.82904 -2.66144,-13.38387 -0.26537,-2.56195 -0.14839,-5.16597 0.26084,-5.80646 0.60484,-0.94661 3.78876,-1.24938 17.22342,-1.63783 13.34318,-0.3858 16.81309,-0.27185 18.22334,0.59849 0.95806,0.59127 1.74194,1.65443 1.74194,2.36256 0,0.70815 0.56358,3.57431 1.25241,6.36926 0.68884,2.79494 2.40175,7.59377 3.80647,10.66405 1.40473,3.07028 3.97662,7.56893 5.71532,9.997 1.73871,2.42807 3.16128,4.76956 3.16128,5.20333 0,0.43376 -5.64752,6.47382 -12.55005,13.42235 -6.90252,6.94853 -13.01894,12.6337 -13.59202,12.6337 -0.5731,0 -2.07807,-1.13226 -3.34439,-2.51613 z"
       id="path4484" />
    <ellipse
       style="opacity:0.99;fill:#2e3436;stroke:none;stroke-width:118.271;stroke-linecap:round;stroke-linejoin:round;stroke-dasharray:none"
       id="path4622"
       cx="-153.26178"
       cy="220.31068"
       rx="5.4743886"
       ry="5.2538037" />
  </g>
</svg>
