<?xml version="1.0" encoding="UTF-8" standalone="no"?>
<svg
   xmlns:dc="http://purl.org/dc/elements/1.1/"
   xmlns:cc="http://creativecommons.org/ns#"
   xmlns:rdf="http://www.w3.org/1999/02/22-rdf-syntax-ns#"
   xmlns:svg="http://www.w3.org/2000/svg"
   xmlns="http://www.w3.org/2000/svg"
   xmlns:sodipodi="http://sodipodi.sourceforge.net/DTD/sodipodi-0.dtd"
   xmlns:inkscape="http://www.inkscape.org/namespaces/inkscape"
   fill="#000000"
   height="800px"
   width="800px"
   version="1.1"
   viewBox="0 0 512 512"
   enable-background="new 0 0 512 512"
   id="svg6"
   sodipodi:docname="view.svg"
   inkscape:version="1.0.2 (e86c870879, 2021-01-15)"
   inkscape:export-filename="weblc6/img/preview.png"
   inkscape:export-xdpi="15.36"
   inkscape:export-ydpi="15.36">
  <metadata
     id="metadata1955">
    <rdf:RDF>
      <cc:Work
         rdf:about="">
        <dc:format>image/svg+xml</dc:format>
        <dc:type
           rdf:resource="http://purl.org/dc/dcmitype/StillImage" />
      </cc:Work>
    </rdf:RDF>
  </metadata>
  <defs
     id="defs10" />
  <sodipodi:namedview
     id="namedview8"
     pagecolor="#ffffff"
     bordercolor="#666666"
     borderopacity="1.0"
     inkscape:showpageshadow="2"
     inkscape:pageopacity="0.0"
     inkscape:pagecheckerboard="0"
     inkscape:deskcolor="#d1d1d1"
     showgrid="false"
     inkscape:zoom="0.37432465"
     inkscape:cx="-547.80022"
     inkscape:cy="365.89802"
     inkscape:window-width="1920"
     inkscape:window-height="1021"
     inkscape:window-x="0"
     inkscape:window-y="0"
     inkscape:window-maximized="1"
     inkscape:current-layer="svg6"
     inkscape:document-rotation="0" />
  <path
     d="M 494.8,241.4 444.2,192 C 394.1,143.1 327.3,116.2 256,116.2 184.7,116.2 117.9,143.1 67.8,192 l -50.6,49.4 c -11.3,12.3 -4.3,25.4 0,29.2 L 67.8,320 c 50.1,48.9 116.9,75.8 188.2,75.8 71.3,0 138.1,-26.9 188.2,-75.8 l 50.6,-49.4 c 4,-3.8 11.7,-16.4 0,-29.2 z M 256,325.8 c -38.5,0 -69.8,-31.3 -69.8,-69.8 0,-38.5 31.3,-69.8 69.8,-69.8 38.5,0 69.8,31.3 69.8,69.8 0,38.5 -31.3,69.8 -69.8,69.8 z M 60.7,256 96.4,221.2 c 27,-26.4 59.8,-45.2 95.7,-55.4 -28.2,20.1 -46.6,53 -46.6,90.1 0,37.1 18.4,70.1 46.6,90.1 -35.9,-10.2 -68.7,-29 -95.7,-55.3 z m 355,34.8 c -27,26.3 -59.8,45.1 -95.7,55.3 28.2,-20.1 46.6,-53 46.6,-90.1 0,-37.2 -18.4,-70.1 -46.6,-90.1 35.9,10.2 68.7,29 95.7,55.4 l 35.6,34.8 z"
     id="path2"
     style="stroke:#eeeeec;stroke-opacity:1;fill:#ffffff;fill-opacity:1" />
</svg>
