<?xml version="1.0" encoding="UTF-8" standalone="no"?>
<svg
   xmlns:dc="http://purl.org/dc/elements/1.1/"
   xmlns:cc="http://creativecommons.org/ns#"
   xmlns:rdf="http://www.w3.org/1999/02/22-rdf-syntax-ns#"
   xmlns:svg="http://www.w3.org/2000/svg"
   xmlns="http://www.w3.org/2000/svg"
   xmlns:sodipodi="http://sodipodi.sourceforge.net/DTD/sodipodi-0.dtd"
   xmlns:inkscape="http://www.inkscape.org/namespaces/inkscape"
   id="svg1"
   sodipodi:docname="save.svg"
   viewBox="0 0 60 60"
   sodipodi:version="0.32"
   _SVGFile__filename="oldscale/devices/3floppy_mount.svg"
   version="1.0"
   y="0"
   x="0"
   inkscape:version="1.0.2 (e86c870879, 2021-01-15)"
   inkscape:export-filename="weblc6/img/save.png"
   inkscape:export-xdpi="204.8"
   inkscape:export-ydpi="204.8">
  <defs
     id="defs3515" />
  <sodipodi:namedview
     id="base"
     bordercolor="#666666"
     inkscape:pageshadow="2"
     inkscape:window-y="0"
     pagecolor="#ffffff"
     inkscape:window-height="1021"
     inkscape:zoom="7.8862221"
     inkscape:window-x="0"
     borderopacity="1.0"
     inkscape:current-layer="svg1"
     inkscape:cx="13.167125"
     inkscape:cy="32.804971"
     inkscape:window-width="1920"
     inkscape:pageopacity="0.0000000"
     inkscape:showpageshadow="2"
     inkscape:pagecheckerboard="0"
     inkscape:deskcolor="#d1d1d1"
     showgrid="false"
     inkscape:window-maximized="1"
     inkscape:document-rotation="0" />
  <path
     id="path2341"
     style="stroke-linejoin:round;stroke:#ffffff;stroke-linecap:round;stroke-width:4.425;fill:none;stroke-miterlimit:4;stroke-dasharray:none"
     d="m7.6819 4.6857c-1.1485 0-2.0731 0.9245-2.0731 2.073v46.482c0 1.149 0.9246 2.073 2.0731 2.073h44.636c1.149 0 2.073-0.924 2.073-2.073v-41.721l-6.867-6.8343h-39.842z" />
  <path
     id="rect731"
     sodipodi:nodetypes="ccccccccc"
     style="fill:#ffffff;fill-opacity:1;fill-rule:evenodd;stroke:#ffffff;stroke-width:1.20525;stroke-linecap:round;stroke-linejoin:round"
     d="m 12.817469,25.732341 c -1.103692,0 -1.991146,0.862737 -1.991146,1.933556 V 48.55685 c 0,1.070819 0.887454,1.933555 1.991146,1.933555 h 34.36512 c 1.102714,0 1.991146,-0.862736 1.991146,-1.933555 V 27.665897 c 0,-1.070819 -0.888432,-1.933556 -1.991146,-1.933556 z" />
  <metadata
     id="metadata3512">
    <rdf:RDF>
      <cc:Work>
        <dc:format>image/svg+xml</dc:format>
        <dc:type
           rdf:resource="http://purl.org/dc/dcmitype/StillImage" />
        <cc:license
           rdf:resource="http://creativecommons.org/publicdomain/zero/1.0/" />
        <dc:publisher>
          <cc:Agent
             rdf:about="http://openclipart.org/">
            <dc:title>Openclipart</dc:title>
          </cc:Agent>
        </dc:publisher>
      </cc:Work>
      <cc:License
         rdf:about="http://creativecommons.org/publicdomain/zero/1.0/">
        <cc:permits
           rdf:resource="http://creativecommons.org/ns#Reproduction" />
        <cc:permits
           rdf:resource="http://creativecommons.org/ns#Distribution" />
        <cc:permits
           rdf:resource="http://creativecommons.org/ns#DerivativeWorks" />
      </cc:License>
    </rdf:RDF>
  </metadata>
  <g
     id="g1077"
     transform="matrix(-1,0,0,1,57.500222,2.3916025)"
     style="opacity:0.99;fill:none;stroke:#ffffff;stroke-width:2.1;stroke-miterlimit:4;stroke-dasharray:none;stroke-opacity:1">
    <path
       id="path655"
       style="fill:none;fill-rule:evenodd;stroke:#ffffff;stroke-width:2.14625;stroke-linecap:round;stroke-linejoin:round;stroke-miterlimit:4;stroke-dasharray:none;stroke-opacity:1"
       transform="matrix(0.97845,0,0,0.97845,0.43127,0.25189)"
       d="m 15.914,4.6592 v 13.242 c 0,1.353 1.188,2.442 2.665,2.442 h 17.908 c 1.477,0 2.666,-1.089 2.666,-2.442 V 4.6592" />
    <path
       id="rect656"
       style="fill:none;fill-opacity:1;fill-rule:evenodd;stroke:#ffffff;stroke-width:2.14625;stroke-linecap:round;stroke-linejoin:round;stroke-miterlimit:4;stroke-dasharray:none;stroke-opacity:1"
       transform="matrix(0.97845,0,0,0.97845,0.43127,0.25189)"
       d="m 20.916,7.9808 c -0.775,0 -1.4,0.624 -1.4,1.3991 v 6.2431 c 0,0.775 0.625,1.399 1.4,1.399 h 3.788 c 0.776,0 1.4,-0.624 1.4,-1.399 V 9.3799 c 0,-0.7751 -0.624,-1.3991 -1.4,-1.3991 z" />
  </g>
</svg>
