<?xml version="1.0" encoding="UTF-8" standalone="no"?>
<svg
   id="Layer_1"
   sodipodi:docname="source-code.svg"
   xml:space="preserve"
   viewBox="0 0 93.502983 49.670418"
   version="1.1"
   inkscape:version="1.4 (86a8ad7, 2024-10-11)"
   width="93.502983"
   height="49.670418"
   xmlns:inkscape="http://www.inkscape.org/namespaces/inkscape"
   xmlns:sodipodi="http://sodipodi.sourceforge.net/DTD/sodipodi-0.dtd"
   xmlns="http://www.w3.org/2000/svg"
   xmlns:svg="http://www.w3.org/2000/svg"
   xmlns:rdf="http://www.w3.org/1999/02/22-rdf-syntax-ns#"
   xmlns:cc="http://creativecommons.org/ns#"
   xmlns:dc="http://purl.org/dc/elements/1.1/"><defs
   id="defs1" /><sodipodi:namedview
   id="namedview3059"
   fit-margin-left="0"
   inkscape:zoom="4.72"
   borderopacity="1"
   inkscape:current-layer="Layer_1"
   inkscape:cx="48.411017"
   inkscape:cy="31.355932"
   inkscape:window-maximized="0"
   showgrid="false"
   fit-margin-right="0"
   bordercolor="#666666"
   inkscape:window-x="86"
   guidetolerance="10"
   objecttolerance="10"
   inkscape:window-y="55"
   fit-margin-bottom="0"
   inkscape:window-width="1902"
   inkscape:pageopacity="0"
   inkscape:pageshadow="2"
   pagecolor="#ffffff"
   gridtolerance="10"
   inkscape:window-height="768"
   fit-margin-top="0"
   inkscape:showpageshadow="2"
   inkscape:pagecheckerboard="0"
   inkscape:deskcolor="#d1d1d1" />
<path
   id="path3045"
   style="display:none"
   inkscape:connector-curvature="0"
   display="none"
   d="m 2384.1408,1449.7139 c -0.191,-0.192 -0.502,-0.192 -0.695,0 l -56.838,56.764 c -0.192,0.191 -0.192,0.501 0,0.692 l 19.207,19.184 c 0.096,0.095 0.222,0.143 0.348,0.143 0.125,0 0.251,-0.048 0.347,-0.143 l 56.839,-56.765 c 0.093,-0.092 0.145,-0.216 0.145,-0.347 0,-0.131 -0.052,-0.255 -0.145,-0.347 z" />
<path
   id="path3047"
   style="display:none"
   inkscape:connector-curvature="0"
   display="none"
   d="m 2411.8148,1447.5689 -6.319,-6.311 c -1.814,-1.811 -4.226,-2.809 -6.792,-2.809 -2.564,0 -4.977,0.998 -6.79,2.809 l -6.319,6.311 c -0.093,0.092 -0.145,0.216 -0.145,0.347 0,0.13 0.052,0.254 0.145,0.346 l 19.207,19.182 c 0.092,0.092 0.218,0.144 0.348,0.144 0.131,0 0.255,-0.052 0.346,-0.144 l 6.319,-6.311 c 1.814,-1.812 2.813,-4.22 2.813,-6.783 0,-2.561 -0.999,-4.969 -2.813,-6.781 z" />
<path
   id="path3049"
   style="display:none"
   inkscape:connector-curvature="0"
   display="none"
   d="m 2325.3268,1508.4159 c -0.122,-0.121 -0.296,-0.172 -0.464,-0.129 -0.167,0.04 -0.3,0.165 -0.351,0.33 l -9.18,29.195 c -0.055,0.178 -0.01,0.369 0.127,0.498 0.094,0.091 0.217,0.139 0.342,0.139 0.054,0 0.11,-0.011 0.164,-0.029 l 28.387,-10.012 c 0.159,-0.056 0.278,-0.188 0.315,-0.354 0.037,-0.164 -0.012,-0.337 -0.132,-0.455 z" />



<text
   id="text3057"
   y="47.157917"
   x="-0.61393058"
   font-size="177.33"
   style="font-size:62.5286px;line-height:0%;font-family:Courier-Bold;fill:#666666;stroke:#666666;stroke-width:5.025;stroke-linecap:round;stroke-linejoin:round;stroke-dasharray:none">&lt;/&gt;</text>
<metadata
   id="metadata1"><rdf:RDF><cc:Work><dc:format>image/svg+xml</dc:format><dc:type
         rdf:resource="http://purl.org/dc/dcmitype/StillImage" /><cc:license
         rdf:resource="http://creativecommons.org/publicdomain/zero/1.0/" /><dc:publisher><cc:Agent
           rdf:about="http://openclipart.org/"><dc:title>Openclipart</dc:title></cc:Agent></dc:publisher></cc:Work><cc:License
       rdf:about="http://creativecommons.org/publicdomain/zero/1.0/"><cc:permits
         rdf:resource="http://creativecommons.org/ns#Reproduction" /><cc:permits
         rdf:resource="http://creativecommons.org/ns#Distribution" /><cc:permits
         rdf:resource="http://creativecommons.org/ns#DerivativeWorks" /></cc:License></rdf:RDF></metadata></svg>
