<?xml version="1.0" encoding="UTF-8" standalone="no"?>
<!-- Created with Inkscape (http://www.inkscape.org/) -->

<svg
   id="svg4776"
   sodipodi:docname="www-dark.svg"
   viewBox="0 0 220.59441 218.78125"
   version="1.1"
   inkscape:version="1.4 (86a8ad7, 2024-10-11)"
   width="220.59441"
   height="218.78125"
   xmlns:inkscape="http://www.inkscape.org/namespaces/inkscape"
   xmlns:sodipodi="http://sodipodi.sourceforge.net/DTD/sodipodi-0.dtd"
   xmlns="http://www.w3.org/2000/svg"
   xmlns:svg="http://www.w3.org/2000/svg"
   xmlns:rdf="http://www.w3.org/1999/02/22-rdf-syntax-ns#"
   xmlns:cc="http://creativecommons.org/ns#"
   xmlns:dc="http://purl.org/dc/elements/1.1/">
  <defs
     id="defs16" />
  <sodipodi:namedview
     id="base"
     bordercolor="#666666"
     inkscape:pageshadow="2"
     inkscape:window-y="-9"
     pagecolor="#ffffff"
     inkscape:window-height="991"
     inkscape:window-maximized="1"
     inkscape:zoom="1.4"
     inkscape:window-x="-9"
     showgrid="false"
     borderopacity="1.0"
     inkscape:current-layer="layer1"
     inkscape:cx="-7.8571429"
     inkscape:cy="113.21429"
     inkscape:window-width="1920"
     inkscape:pageopacity="0.0"
     inkscape:document-units="px"
     inkscape:showpageshadow="2"
     inkscape:pagecheckerboard="0"
     inkscape:deskcolor="#d1d1d1" />
  <g
     id="layer1"
     inkscape:label="Layer 1"
     inkscape:groupmode="layer"
     transform="translate(-271.33646,-416.42937)">
    <path
       style="color:#000000;font-style:normal;font-variant:normal;font-weight:normal;font-stretch:normal;font-size:medium;line-height:normal;font-family:Sans;-inkscape-font-specification:Sans;text-indent:0;text-align:start;text-decoration:none;text-decoration-line:none;letter-spacing:normal;word-spacing:normal;text-transform:none;writing-mode:lr-tb;direction:ltr;baseline-shift:baseline;text-anchor:start;display:inline;overflow:visible;visibility:visible;fill:#808080;fill-opacity:1;stroke:none;stroke-width:14;stroke-opacity:1;marker:none;enable-background:accumulate"
       d="m 381.63375,423.42937 c -47.01503,0 -87.05212,30.27533 -100.375,72 h 14.875 c 1.54531,-4.12396 3.39301,-8.09777 5.53125,-11.90625 h 28.625 c -1.2484,3.89461 -2.27476,7.87823 -3.125,11.90625 h 14.5 c 1.01303,-4.05924 2.22053,-8.04548 3.65625,-11.90625 h 27.625 v 11.90625 h 14 V 483.52312 H 416.79 c 1.60583,3.86417 2.95521,7.84357 4.09375,11.90625 h 14.5 c -0.97411,-4.03227 -2.1081,-8.00817 -3.5,-11.90625 h 29.71875 c 2.13864,3.80919 3.98576,7.78147 5.53125,11.90625 h 14.84375 c -13.32292,-41.72463 -53.32876,-72 -100.34375,-72 z m 21.125,16.46875 c 19.59582,4.50588 36.71025,15.07279 49.09375,29.625 h -25.96875 c -5.79971,-11.22052 -13.48422,-21.34738 -23.125,-29.625 z m -46.34375,1.03125 c -8.67874,8.05589 -15.52411,17.81003 -20.625,28.59375 h -24.375 c 11.51432,-13.53082 27.11511,-23.61459 45,-28.59375 z m 30.53125,4.5 c 9.23021,6.31833 16.67811,14.65053 22.59375,24.09375 h -22.59375 z m -14,0.0937 v 24 H 351.8525 c 5.41923,-9.46489 12.33749,-17.77614 21.09375,-24 z m -87.5,63.4375 c -1.39309,3e-5 -2.55682,0.31443 -3.5,0.96875 -0.94318,0.65438 -1.40625,1.46965 -1.40625,2.40625 0,0.70089 0.20181,1.67211 0.65625,2.9375 l 7.4375,21.375 c 0.22656,0.63916 0.48735,1.35968 0.78125,2.125 0.29388,0.76533 0.70457,1.44597 1.1875,2.03125 0.48291,0.58528 1.14014,1.0347 1.96875,1.375 0.82859,0.3403 1.86914,0.5 3.125,0.5 1.55749,0 2.78073,-0.28242 3.71875,-0.84375 0.93798,-0.56133 1.60751,-1.16499 1.96875,-1.84375 0.3612,-0.67875 0.81049,-1.72413 1.375,-3.15625 l 6.65625,-18.75 6.625,18.84375 c 0.5515,1.3962 0.99091,2.42651 1.34375,3.09375 0.35276,0.66725 0.99946,1.29025 1.9375,1.84375 0.93796,0.5535 2.18598,0.8125 3.75,0.8125 1.64421,0 2.93289,-0.26998 3.84375,-0.84375 0.91076,-0.57377 1.54822,-1.2196 1.90625,-1.9375 0.35793,-0.7179 0.77757,-1.81236 1.28125,-3.25 l 7.4375,-21.375 c 0.46085,-1.34183 0.68744,-2.31305 0.6875,-2.9375 -6e-5,-0.95318 -0.48273,-1.76016 -1.4375,-2.40625 -0.95489,-0.64603 -2.10032,-0.96872 -3.46875,-0.96875 -1.37242,3e-5 -2.43128,0.24304 -3.15625,0.75 -0.72507,0.50703 -1.22299,1.05811 -1.5,1.65625 -0.27711,0.5982 -0.56285,1.38873 -0.84375,2.34375 l -5.25,18.1875 -5.875,-17.03125 c -0.54898,-1.43024 -0.99487,-2.45773 -1.34375,-3.125 -0.34895,-0.66721 -1.02302,-1.31449 -1.96875,-1.90625 -0.9458,-0.59169 -2.26497,-0.87497 -3.96875,-0.875 -1.67535,3e-5 -2.98417,0.2737 -3.96875,0.84375 -0.98463,0.57011 -1.68789,1.23845 -2.09375,1.96875 -0.40591,0.73036 -0.8492,1.7464 -1.34375,3.09375 l -5.84375,17.03125 -5.28125,-18.3125 c -0.41302,-1.3888 -0.94901,-2.49366 -1.59375,-3.34375 -0.64476,-0.85003 -1.91985,-1.28122 -3.84375,-1.28125 z m 71.96875,0 c -1.39309,3e-5 -2.55682,0.31443 -3.5,0.96875 -0.94318,0.65438 -1.40625,1.46965 -1.40625,2.40625 0,0.70089 0.23306,1.67211 0.6875,2.9375 l 7.4375,21.375 c 0.22656,0.63916 0.48735,1.35968 0.78125,2.125 0.29388,0.76533 0.67332,1.44597 1.15625,2.03125 0.48291,0.58528 1.14014,1.0347 1.96875,1.375 0.82859,0.3403 1.86914,0.5 3.125,0.5 1.55749,0 2.81198,-0.28242 3.75,-0.84375 0.93798,-0.56133 1.57626,-1.16499 1.9375,-1.84375 0.3612,-0.67875 0.81049,-1.72413 1.375,-3.15625 l 6.65625,-18.75 6.625,18.84375 c 0.5515,1.3962 0.99091,2.42651 1.34375,3.09375 0.35276,0.66725 0.99946,1.29025 1.9375,1.84375 0.93796,0.5535 2.18598,0.8125 3.75,0.8125 1.64421,0 2.93289,-0.26998 3.84375,-0.84375 0.91076,-0.57377 1.54822,-1.2196 1.90625,-1.9375 0.35793,-0.7179 0.77757,-1.81236 1.28125,-3.25 l 7.4375,-21.375 c 0.46085,-1.34183 0.68744,-2.31305 0.6875,-2.9375 -6e-5,-0.95318 -0.48273,-1.76016 -1.4375,-2.40625 -0.95489,-0.64603 -2.10032,-0.96872 -3.46875,-0.96875 -1.37242,3e-5 -2.43128,0.24304 -3.15625,0.75 -0.72507,0.50703 -1.22299,1.05811 -1.5,1.65625 -0.27711,0.5982 -0.56285,1.38873 -0.84375,2.34375 l -5.25,18.1875 -5.875,-17.03125 c -0.54898,-1.43024 -0.99487,-2.45773 -1.34375,-3.125 -0.34895,-0.66721 -0.99177,-1.31449 -1.9375,-1.90625 -0.9458,-0.59169 -2.26498,-0.87497 -3.96875,-0.875 -1.67535,3e-5 -3.01542,0.2737 -4,0.84375 -0.98463,0.57011 -1.68789,1.23845 -2.09375,1.96875 -0.40591,0.73036 -0.8492,1.7464 -1.34375,3.09375 l -5.84375,17.03125 -5.28125,-18.3125 c -0.41302,-1.3888 -0.91776,-2.49366 -1.5625,-3.34375 -0.64476,-0.85003 -1.9511,-1.28122 -3.875,-1.28125 z m 71.96875,0 c -1.39309,3e-5 -2.55682,0.31443 -3.5,0.96875 -0.94318,0.65438 -1.40625,1.46965 -1.40625,2.40625 0,0.70089 0.23306,1.67211 0.6875,2.9375 l 7.4375,21.375 c 0.22656,0.63916 0.48735,1.35968 0.78125,2.125 0.29388,0.76533 0.67332,1.44597 1.15625,2.03125 0.48291,0.58528 1.14014,1.0347 1.96875,1.375 0.82859,0.3403 1.86914,0.5 3.125,0.5 1.55749,0 2.81198,-0.28242 3.75,-0.84375 0.93798,-0.56133 1.57626,-1.16499 1.9375,-1.84375 0.3612,-0.67875 0.84174,-1.72413 1.40625,-3.15625 l 6.625,-18.75 6.625,18.84375 c 0.5515,1.3962 0.99091,2.42651 1.34375,3.09375 0.35276,0.66725 0.99946,1.29025 1.9375,1.84375 0.93796,0.5535 2.18598,0.8125 3.75,0.8125 1.64421,0 2.93289,-0.26998 3.84375,-0.84375 0.91076,-0.57377 1.54822,-1.2196 1.90625,-1.9375 0.35793,-0.7179 0.77757,-1.81236 1.28125,-3.25 l 7.4375,-21.375 c 0.46085,-1.34183 0.68744,-2.31305 0.6875,-2.9375 -6e-5,-0.95318 -0.45148,-1.76016 -1.40625,-2.40625 -0.95489,-0.64603 -2.13157,-0.96872 -3.5,-0.96875 -1.37242,3e-5 -2.43128,0.24304 -3.15625,0.75 -0.72507,0.50703 -1.22299,1.05811 -1.5,1.65625 -0.27711,0.5982 -0.56285,1.38873 -0.84375,2.34375 l -5.21875,18.18755 -5.90625,-17.03125 c -0.54898,-1.43024 -0.99487,-2.45773 -1.34375,-3.125 -0.34895,-0.66721 -0.99177,-1.31449 -1.9375,-1.90625 -0.9458,-0.59169 -2.26498,-0.87497 -3.96875,-0.875 -1.67535,3e-5 -3.01542,0.2737 -4,0.84375 -0.98463,0.57011 -1.68789,1.23845 -2.09375,1.96875 -0.40591,0.73036 -0.8492,1.7464 -1.34375,3.09375 l -5.84375,17.03125 -5.25,-18.3125 c -0.41302,-1.3888 -0.94901,-2.49366 -1.59375,-3.34375 -0.64476,-0.85003 -1.9511,-1.28122 -3.875,-1.28125 z m -148.65625,45.4063 c 12.71877,42.66707 53.2005,73.84375 100.90625,73.84375 47.70641,0 88.18808,-31.17576 100.90625,-73.84375 h -14.78125 c -1.40949,4.02398 -3.09404,7.91449 -5.0625,11.65625 h -30 c 1.27719,-3.81496 2.33146,-7.71469 3.21875,-11.65625 h -14.28125 c -0.99702,3.9856 -2.19156,7.87963 -3.65625,11.65625 h -31.03125 v -11.65625 h -14 v 11.65625 H 344.6025 c -1.28521,-3.76263 -2.39095,-7.66075 -3.3125,-11.65625 h -14.375 c 0.8054,3.94613 1.78832,7.84147 2.90625,11.65625 h -29.25 c -1.96846,-3.74176 -3.68426,-7.63227 -5.09375,-11.65625 z m 29.03125,25.65625 h 25.09375 c 5.12157,11.84685 11.91198,22.42715 20.65625,30.46875 -18.41017,-5.32514 -34.27713,-16.13118 -45.75,-30.46875 z m 40.6875,0 h 22.5 v 26.15625 c -9.09209,-5.76359 -16.69668,-14.95193 -22.5,-26.15625 z m 36.5,0 h 24.0625 c -6.10912,10.21204 -14.05369,19.04677 -24.0625,25.5 z m 40.15625,0 h 26.40625 c -12.63601,15.79113 -30.62959,27.28859 -51.4375,31.90625 10.67724,-8.63354 18.97332,-19.62587 25.03125,-31.90625 z"
       id="path3592-4-4-3-8"
       inkscape:connector-curvature="0" />
  </g>
  <metadata
     id="metadata14">
    <rdf:RDF>
      <cc:Work>
        <dc:format>image/svg+xml</dc:format>
        <dc:type
           rdf:resource="http://purl.org/dc/dcmitype/StillImage" />
        <cc:license
           rdf:resource="http://creativecommons.org/publicdomain/zero/1.0/" />
        <dc:publisher>
          <cc:Agent
             rdf:about="http://openclipart.org/">
            <dc:title>Openclipart</dc:title>
          </cc:Agent>
        </dc:publisher>
        <dc:date>2010-09-23T04:19:58</dc:date>
        <dc:description />
        <dc:source>https://openclipart.org/detail/86401/internet-icon-by-ben</dc:source>
        <dc:creator>
          <cc:Agent>
            <dc:title>ben</dc:title>
          </cc:Agent>
        </dc:creator>
        <dc:subject>
          <rdf:Bag>
            <rdf:li>Icon</rdf:li>
            <rdf:li>internet</rdf:li>
            <rdf:li>world</rdf:li>
          </rdf:Bag>
        </dc:subject>
      </cc:Work>
      <cc:License
         rdf:about="http://creativecommons.org/publicdomain/zero/1.0/">
        <cc:permits
           rdf:resource="http://creativecommons.org/ns#Reproduction" />
        <cc:permits
           rdf:resource="http://creativecommons.org/ns#Distribution" />
        <cc:permits
           rdf:resource="http://creativecommons.org/ns#DerivativeWorks" />
      </cc:License>
    </rdf:RDF>
  </metadata>
</svg>
